<?xml version="1.0" encoding="utf-8"?><!-- Uploaded to: SVG Repo, www.svgrepo.com, Generator: SVG Repo Mixer Tools -->
<svg width="800px" height="800px" viewBox="0 0 24 24" fill="none" xmlns="http://www.w3.org/2000/svg">
<path fill-rule="evenodd" clip-rule="evenodd" d="M14.9949 6.66208C13.744 6.66208 12.7299 7.66944 12.7299 8.91208C12.7299 10.1547 13.744 11.1621 14.9949 11.1621C16.2458 11.1621 17.2599 10.1547 17.2599 8.91208C17.2599 7.66944 16.2458 6.66208 14.9949 6.66208ZM14.2399 8.91208C14.2399 8.49787 14.5779 8.16208 14.9949 8.16208C15.4119 8.16208 15.7499 8.49787 15.7499 8.91208C15.7499 9.32629 15.4119 9.66208 14.9949 9.66208C14.5779 9.66208 14.2399 9.32629 14.2399 8.91208Z" fill="#1F2328"/>
<path fill-rule="evenodd" clip-rule="evenodd" d="M18.9798 14.0654L17.9492 13.038L20.9998 10V3H13.8387L10.8412 5.97759L9.85128 4.9906L3.99976 7.18206V8.55907L6.12113 10.6664L4.30272 12.4727L11.2851 19.658L13.2325 17.7235L15.5174 20H16.8228L18.9798 14.0654ZM9.77347 7.03825L9.47056 6.73624L5.71582 8.14243L7.18887 9.60572L9.77347 7.03825ZM7.18926 11.7267L6.41952 12.4913L11.3041 17.5178L12.1652 16.6625L7.18926 11.7267ZM14.3002 16.6629L15.864 18.2209L17.2344 14.4505L16.8815 14.0987L14.3002 16.6629ZM8.25699 10.666L13.2329 15.6018L19.4897 9.38638V4.5H14.4641L8.25699 10.666Z" fill="#1F2328"/>
<path d="M5.34998 15.3532L6.41064 16.4139L3.41711 19.4074L2.35645 18.3468L5.34998 15.3532Z" fill="#1F2328"/>
<path d="M7.34996 17.3532L8.41062 18.4139L6.2893 20.5352L5.22864 19.4745L7.34996 17.3532Z" fill="#1F2328"/>
</svg>